<svg width="221" height="220" viewBox="0 0 221 220" fill="none" xmlns="http://www.w3.org/2000/svg">
<path d="M207.167 86.9819C225.457 120.675 196.8 165.123 167.95 168.123C141.661 170.857 111.798 166.23 83.4064 153.401C32.9109 130.585 8.74707 111.021 8.74707 82.7383C8.74707 54.4559 42.3965 41.0975 57.7489 51.8232C142.357 110.933 193.751 62.2684 207.167 86.9819Z" fill="#FAFAFA"/>
<path d="M62.2799 63.0241C62.7664 60.1357 65.2674 58.0207 68.1966 58.0207L177.567 58.0207C181.243 58.0207 184.054 61.296 183.498 64.9294L170.587 149.193C170.138 152.122 167.619 154.285 164.656 154.285H54.0033C50.2915 154.285 47.4702 150.948 48.0867 147.288L62.2799 63.0241Z" fill="#FAFAFA" stroke="#E5E5E5" stroke-width="1.5"/>
<path d="M94.7165 29.5117C95.7757 27.1245 98.5695 26.0479 100.957 27.1071L164.818 55.4414C167.205 56.5005 168.281 59.2944 167.222 61.6816L146.955 107.36C145.896 109.747 143.102 110.824 140.715 109.765L76.8541 81.4303C74.4669 80.3711 73.3904 77.5772 74.4495 75.19L94.7165 29.5117Z" fill="#FAFAFA"/>
<path d="M132.877 75.2429C133.184 72.1651 133.327 69.4187 131.764 66.7498C130.2 64.0809 127.83 61.9769 124.995 60.7403C122.16 59.5038 119.005 59.1986 115.985 59.8685C112.966 60.5385 111.395 62.211 109.349 64.5306M76.8541 81.4303L140.715 109.765C143.102 110.824 145.896 109.747 146.955 107.36L167.222 61.6816C168.281 59.2944 167.205 56.5005 164.818 55.4414L100.957 27.1071C98.5695 26.0479 95.7757 27.1245 94.7165 29.5117L74.4495 75.19C73.3904 77.5772 74.4669 80.3711 76.8541 81.4303Z" stroke="#E5E5E5" stroke-width="1.5"/>
<circle cx="114.956" cy="48.9125" r="2.00188" fill="#E5E5E5"/>
<circle cx="124.158" cy="21.9039" r="2.00188" fill="#E5E5E5"/>
<circle cx="140.886" cy="60.0226" r="2.00188" fill="#E5E5E5"/>
<ellipse cx="112.631" cy="196.797" rx="64.1205" ry="3.30105" fill="#FAFAFA"/>
<path d="M57.3555 37.5614H66.813M62.0842 42.2901V32.8326" stroke="#E5E5E5" stroke-width="1.5" stroke-linecap="round" stroke-linejoin="round"/>
<path d="M190.198 25.815H199.656M194.927 30.5438V21.0863" stroke="#E5E5E5" stroke-width="1.5" stroke-linecap="round" stroke-linejoin="round"/>
<path d="M30.1484 160.364H39.606M34.8772 165.093V155.635" stroke="#E5E5E5" stroke-width="1.5" stroke-linecap="round" stroke-linejoin="round"/>
<path d="M46.9082 71.1752C46.9082 67.8615 49.5945 65.1752 52.9082 65.1752H92.2525C94.3484 65.1752 96.2923 66.2689 97.3805 68.0601L104.091 79.1064C105.179 80.8977 107.123 81.9913 109.219 81.9913H163.807C167.121 81.9913 169.807 84.6776 169.807 87.9913V148.285C169.807 151.598 167.121 154.285 163.807 154.285H52.9082C49.5945 154.285 46.9082 151.598 46.9082 148.285V71.1752Z" fill="#FAFAFA" stroke="#E5E5E5" stroke-width="1.5"/>
<path d="M179.563 117.334C179.563 135.175 165.1 149.638 147.259 149.638C129.418 149.638 114.955 135.175 114.955 117.334C114.955 99.4929 129.418 85.0298 147.259 85.0298C165.1 85.0298 179.563 99.4929 179.563 117.334Z" fill="#FAFAFA" stroke="#E5E5E5" stroke-width="1.5"/>
<path d="M178.296 145.468C179.505 144.215 181.5 144.179 182.753 145.388L206.158 167.967C207.411 169.176 207.447 171.171 206.238 172.424L203.183 175.592C201.974 176.845 199.978 176.881 198.725 175.672L175.32 153.093C174.067 151.884 174.031 149.888 175.24 148.635L178.296 145.468Z" fill="#FAFAFA"/>
<path d="M169.555 140.965L176.422 147.492M175.32 153.093L198.725 175.672C199.978 176.881 201.974 176.845 203.183 175.592L206.238 172.424C207.447 171.171 207.411 169.176 206.158 167.967L182.753 145.388C181.5 144.179 179.505 144.215 178.296 145.468L175.24 148.635C174.031 149.888 174.067 151.884 175.32 153.093Z" stroke="#E5E5E5"/>
</svg>
